<svg xmlns="http://www.w3.org/2000/svg" xmlns:xlink="http://www.w3.org/1999/xlink" viewBox="0 0 1200 1028.57"><defs><style>.cls-1{fill:none;}.cls-2{fill:#f2f2f2;}.cls-3{fill:#3f3d56;}.cls-4{fill:#fff;}.cls-5{fill:#e6e8ec;}.cls-6{fill:url(#linear-gradient);}.cls-7{fill:url(#linear-gradient-2);}.cls-8{fill:#feb9b9;}.cls-9{fill:#2f2e41;}.cls-10{opacity:0.1;isolation:isolate;}.cls-11{fill:#efefef;}.cls-12{fill:#ff2ebc;}</style><linearGradient id="linear-gradient" x1="514.63" y1="512.99" x2="700.61" y2="512.99" gradientUnits="userSpaceOnUse"><stop offset="0" stop-color="#24b7f4"/><stop offset="1" stop-color="#28e2a6"/></linearGradient><linearGradient id="linear-gradient-2" x1="-505.44" y1="-73.72" x2="-505.44" y2="-72.71" gradientTransform="matrix(1.22, 0, 0, -0.29, 972.69, 502.78)" gradientUnits="userSpaceOnUse"><stop offset="0" stop-color="gray" stop-opacity="0.25"/><stop offset="0.54" stop-color="gray" stop-opacity="0.12"/><stop offset="1" stop-color="gray" stop-opacity="0.1"/></linearGradient></defs><g id="Layer_2" data-name="Layer 2"><g id="Layer_1-2" data-name="Layer 1"><rect class="cls-1" width="1200" height="1028.57"/><path class="cls-2" d="M394,137c31.52-28.09,81-33.81,126-31.57,141.44,7,269.11,75.31,379.55,152.54,40,28,79.34,58.09,105.29,96.6,52.83,78.38,37.16,187-36.3,251.53-25,22-55.29,38.81-86.4,53.74-55.3,26.55-115,47.86-177.74,53.92-44.76,4.33-90.08.81-134.58-5.22-124.32-16.86-246.35-54.15-348.61-117.94-44.86-28-87.15-62.76-105.64-108s-6.65-102.62,39.15-129.41c19-11.08,41.6-16.08,63.78-20.78,32.64-6.92,65.81-13.74,95.27-27.8,30.44-14.54,66.44-42.63,60.44-74.77C367.67,195.29,362.48,165,394,137Z"/><ellipse class="cls-2" cx="606.75" cy="887.35" rx="230.53" ry="16.31"/><rect id="Rectangle_76" data-name="Rectangle 76" class="cls-3" x="784.81" y="309.37" width="10.99" height="90.6" rx="2.29"/><rect id="Rectangle_80" data-name="Rectangle 80" class="cls-3" x="422.96" y="139.81" width="367.78" height="747.46" rx="38.99"/><path id="Path_176" data-name="Path 176" class="cls-4" d="M739.55,159.28H697.37v5.07a24.05,24.05,0,0,1-24,24.05H539.14a24,24,0,0,1-24.06-24h0v-5.07h-39.5a29.2,29.2,0,0,0-29.21,29.21V838.64a29.2,29.2,0,0,0,29.21,29.2h264a29.2,29.2,0,0,0,29.21-29.2V188.54a29.19,29.19,0,0,0-29.16-29.26Z"/><rect id="Rectangle_81" data-name="Rectangle 81" class="cls-5" x="571.38" y="162.13" width="51.36" height="10.42" rx="3.87"/><circle id="Ellipse_5" data-name="Ellipse 5" class="cls-5" cx="636.42" cy="167.34" r="5.92"/><circle id="Ellipse_11" data-name="Ellipse 11" class="cls-4" cx="609.1" cy="522.71" r="69.57"/><path id="Path_222" data-name="Path 222" class="cls-6" d="M700.61,513a93,93,0,1,1-93-93,93,93,0,0,1,93,93ZM596.87,562.22l69-69a6,6,0,0,0,0-8.48h0l-8.49-8.42a6,6,0,0,0-8.45,0l0,0-56.26,56.26-26.27-26.33a6,6,0,0,0-8.48,0l-8.49,8.53a6,6,0,0,0,0,8.49l39,39a6,6,0,0,0,8.47,0h0Z"/><rect id="Rectangle_77" data-name="Rectangle 77" class="cls-3" x="431.23" y="287.16" width="5.54" height="26.81" rx="2.29"/><rect id="Rectangle_78" data-name="Rectangle 78" class="cls-3" x="431.03" y="336.26" width="6.25" height="46.67" rx="2.29"/><rect id="Rectangle_79" data-name="Rectangle 79" class="cls-3" x="431.13" y="399.26" width="5.95" height="47.07" rx="2.29"/><path id="Path_190" data-name="Path 190" class="cls-7" d="M357.46,523.72a1,1,0,0,0,1.21.15A4.1,4.1,0,0,1,357.46,523.72Z"/><path id="Path_192" data-name="Path 192" class="cls-8" d="M403.42,541.7l-1.2,6.53-.93,5-1.68,9.15-16.33,11.43s-1.47-1.26-3.9-3.25c-6.69-5.51-20.76-16.73-31.08-22.75a34.92,34.92,0,0,0-8.55-3.94Z"/><path id="Path_194" data-name="Path 194" class="cls-3" d="M391.44,546.56s19,3.27,20.16-4.86-9.8-12.53-19.05-13.08-64.77,3.27-64.77,3.27S318,545,353.35,547.14Z"/><rect id="Rectangle_82" data-name="Rectangle 82" class="cls-9" x="333.48" y="278.25" width="99.6" height="118.1"/><rect id="Rectangle_83" data-name="Rectangle 83" class="cls-10" x="333.48" y="278.79" width="99.6" height="118.1"/><path id="Path_198" data-name="Path 198" class="cls-8" d="M216.75,480.43c-1.64.41-3.74,2-6.07,4.29-10,9.94-24.42,33.26-24.42,33.26-18.38-21.89,2-39.19,10.63-45.13,2.11-1.44,3.53-2.24,3.53-2.24Z"/><path id="Path_199" data-name="Path 199" class="cls-8" d="M402.33,315.53s4.9,34.28,21.77,42.45-21.77,23.42-21.77,23.42l-52.79-19.61s29.93-9.8,23.94-38.65Z"/><path id="Path_200" data-name="Path 200" class="cls-8" d="M345.72,521.8l-1.19,6.51-1,5-1.68,9.15L325.55,553.9s-1.47-1.25-3.9-3.24c-6.69-5.51-20.76-16.73-31.1-22.75A34.92,34.92,0,0,0,282,524Z"/><path id="Path_202" data-name="Path 202" class="cls-9" d="M331.6,529.83s17.09.12,18.11-8-9.31-12.53-18.11-13.07-62.29,3.52-62.29,3.52-7.59,15.4,26.06,17.58Z"/><path id="Path_204" data-name="Path 204" class="cls-3" d="M451.4,657.93l-2.23-1.12-2-2.53-26.33-33.39v.58c-.18,5.57-2.07,49.76-16.86,53.85-15.79,4.35-34.82,5.44-43.5-24s-24.54-93.61-40.83-97.43l24.23-19.86s16,18.76,22.57,36.72c-.24-1.12-11.32-52.87-2.23-62h79.48s12.27,35,20.68,52.26c6.54,13.44,16.37,45.21,22.7,66.72C493.33,649,471.32,667.73,451.4,657.93Z"/><path id="Path_205" data-name="Path 205" class="cls-10" d="M449.14,518.53c-12.27,7.26-66.13,4.31-83.65,3.12l-4.78-.34c-.51,0,.08-.29.08-.29l.49-4.94,13.06-33.2,69.94-40.55c-1.42,4.27-1.89,10.81-1.78,18.29C442.83,484.67,449.14,518.53,449.14,518.53Z"/><path id="Path_206" data-name="Path 206" class="cls-11" d="M449.14,516.89c-12.27,7.26-66.13,4.31-83.65,3.12l-4.78-.33-.79-.07.87-.22,4.31-1.12,9.24-37,69.93-40.55c-1.41,4.28-1.88,10.81-1.77,18.3C442.83,483,449.14,516.89,449.14,516.89Z"/><path id="Path_207" data-name="Path 207" class="cls-10" d="M442.46,459c-14.22,3.28-45.52,12.9-57.54,36.14-8,15.47-14.77,22.11-19.48,24.88l-4.77-.33c0-.1.06-.19.08-.29l4.3-1.12,9.25-37,69.93-40.55C442.83,445,442.35,451.51,442.46,459Z"/><path id="Path_208" data-name="Path 208" class="cls-10" d="M200.42,470.64l16.33,9.79c-1.64.41-3.74,2-6.07,4.3-1.36-4-9.9-9.52-13.79-11.88C199,471.43,200.42,470.64,200.42,470.64Z"/><path id="Path_209" data-name="Path 209" class="cls-10" d="M357.76,520.32a1,1,0,0,1-1.12-.16A3.89,3.89,0,0,0,357.76,520.32Z"/><path id="Path_210" data-name="Path 210" class="cls-12" d="M394.71,355.8s-14.7,1.63-25-9.25c0,0-43.5,12.52-58.23,40.82s-114.88,83.81-114.88,83.81S214,481,212.34,485.87l65.86-38.1s23.42-16.86,29.93-20.67,42.46-27.22,50.08,36.46,0,56.05,0,56.05,10.88,3.82,26.66-26.66,64.76-37.56,64.76-37.56l2.72-32.1s9.72-21.28,2.23-30.11a19.07,19.07,0,0,1-4.36-9.22c-1.24-8.15,0-21.73,17.33-33,26.67-17.42,37-31.56,37-31.56s.55-10.35-15.78-15.25-82.73-31.57-82.73-31.57l-2.23,9.26,52.39,37S430.09,340,409.37,339.47C409.37,339.47,413.21,355.26,394.71,355.8Z"/><path id="Path_211" data-name="Path 211" class="cls-10" d="M404.79,330.45a107.77,107.77,0,0,1-3-13.29l-28.84,7.62a31.66,31.66,0,0,1-.66,16.64A31,31,0,0,0,404.79,330.45Z"/><circle id="Ellipse_10" data-name="Ellipse 10" class="cls-8" cx="380.84" cy="309.82" r="31.02"/><path id="Path_213" data-name="Path 213" class="cls-10" d="M414.57,559.62s18,35.38,12.52,46.25"/><path id="Path_221" data-name="Path 221" class="cls-9" d="M397.33,238.18c8.61,1,16.79,4.67,25.26,6.69a12.62,12.62,0,0,0,6.54.25c3.29-1,6-4.47,9.38-4.37,2.1.07,4,1.5,5.69,2.87a69.61,69.61,0,0,1,7.8,7c5.85,6.35,9.47,14.89,14.8,21.79s12.94,15,20.51,11.84c-5.15,20.07-21.22,32.63-39.48,33.88-7.28.5-14.74-1-21.79,1.12a19,19,0,0,1-5.5,1.34c-4.06,0-7.33-3.73-9.86-7.35-5.93-8.52-10.63-18.19-17.31-26-2.23-2.57-4.81-5-7.93-5.49s-6,1-8.77,2.47c-4.58,2.38-9.26,4.83-12.82,8.92s-5.8,10.14-4.33,15.62c.79,3,2.6,5.64,2.63,8.74.07,4.95-4.3,8.57-5.16,13.39a47.56,47.56,0,0,0-.21,6.09c-.38,6.6-4.7,12-9.2,16.16-1.77,1.6-3.7,3.34-4.22,5.83-.35,1.71,0,3.5-.22,5.23-.66,4.28-4.93,6.46-8.71,7a25.2,25.2,0,0,1-13.08-1.55c5.29-2.5,8.55-9.62,7.32-16-1.68-8.83-10.56-15.18-9.8-24.17a28.19,28.19,0,0,1,2.45-7.95,72.2,72.2,0,0,0,4.2-15.07c.67-4,1-8.2-.26-12-1.11-3.46-3.44-6.21-5.42-9.13a52,52,0,0,1-6.28-12.86,9.12,9.12,0,0,1-.6-4.26,8.84,8.84,0,0,1,2.73-4.41c4.86-5.1,10-10.39,16.55-11.86a37.36,37.36,0,0,1,9.39-.35,111.05,111.05,0,0,0,16.31-.69c4.46-.53,12-.46,15.79-3.35,3.52-2.7,5.51-6.09,9.84-7.81a29,29,0,0,1,13.77-1.57Z"/><ellipse class="cls-2" cx="371.38" cy="904.2" rx="113.89" ry="12.45"/></g></g></svg>