<svg xmlns="http://www.w3.org/2000/svg" xmlns:xlink="http://www.w3.org/1999/xlink" viewBox="0 0 1200 1028.57"><defs><style>.cls-1{fill:none;}.cls-2{fill:#f2f2f2;}.cls-14,.cls-3{opacity:0.1;}.cls-4{fill:#3a3768;}.cls-5{fill:#28e2a6;}.cls-6{fill:url(#linear-gradient);}.cls-7{fill:#24b7f4;}.cls-8{fill:#e6e8ec;}.cls-9{fill:#ff2ebc;}.cls-10{fill:#6c63ff;}.cls-11{fill:#7e2bff;}.cls-12{fill:url(#linear-gradient-2);}.cls-13{fill:#fec2be;}.cls-14{isolation:isolate;}.cls-15{fill:#4c4981;}.cls-16{fill:url(#linear-gradient-3);}.cls-17{fill:#fff;}.cls-18{fill:#2f2e41;}</style><linearGradient id="linear-gradient" x1="488.86" y1="427.51" x2="488.46" y2="611.31" gradientUnits="userSpaceOnUse"><stop offset="0" stop-color="#24b7f4"/><stop offset="1" stop-color="#28e2a6"/></linearGradient><linearGradient id="linear-gradient-2" x1="983.67" y1="366.95" x2="983.67" y2="398.9" gradientTransform="matrix(1, 0, 0, -1, -135.16, 741.04)" gradientUnits="userSpaceOnUse"><stop offset="0" stop-color="gray" stop-opacity="0.25"/><stop offset="0.54" stop-color="gray" stop-opacity="0.12"/><stop offset="1" stop-color="gray" stop-opacity="0.1"/></linearGradient><linearGradient id="linear-gradient-3" x1="779.69" y1="377.92" x2="733.34" y2="554.36" gradientUnits="userSpaceOnUse"><stop offset="0" stop-color="#ff2ebc"/><stop offset="1" stop-color="#8027ff"/></linearGradient></defs><g id="Layer_2" data-name="Layer 2"><g id="Layer_1-2" data-name="Layer 1"><rect class="cls-1" width="1200" height="1028.57"/><ellipse class="cls-2" cx="888.78" cy="859.27" rx="118.88" ry="20.45"/><ellipse class="cls-2" cx="528.84" cy="839.27" rx="176" ry="12.45"/><path class="cls-2" d="M422.79,137c31.52-28.09,81-33.81,126-31.57,141.44,7,269.11,75.31,379.55,152.54,40,28,79.34,58.09,105.29,96.6,52.83,78.38,37.16,187-36.3,251.53-25,22-55.29,38.81-86.4,53.74-55.3,26.55-115,47.86-177.74,53.92-44.76,4.33-90.08.81-134.58-5.22C474.29,691.64,352.26,654.35,250,590.56c-44.86-28-87.15-62.76-105.64-108s-6.65-102.62,39.15-129.41c19-11.08,41.6-16.08,63.78-20.78,32.64-6.92,65.81-13.74,95.27-27.8C373,290,409,261.94,403,229.8,396.5,195.29,391.31,165,422.79,137Z"/><line class="cls-1" x1="299.16" y1="281.86" x2="291.63" y2="281.86"/><g class="cls-3"><path d="M541.81,751.29c3.84,6.53,9.86,10.74,16.64,10.74,11.58,0,21-12.27,21-27.42s-9.45-27.32-21-27.32c-5.45,0-10.42,2.72-14.15,7.19a27.22,27.22,0,0,0-3.57,5.59l-.2,1.19s-4.47,3.82-10.56.31V632.75H443.25a7,7,0,0,1-1.05-6.54,8.34,8.34,0,0,1,3.91-4.77c6.53-3.84,10.75-9.86,10.75-16.64,0-11.58-12.28-21-27.42-21S402,593.19,402,604.8c0,5.45,2.73,10.43,7.2,14.16a28.1,28.1,0,0,0,5.58,3.56l.12.2a8.52,8.52,0,0,1,1.67,10H377.48V797.2a39,39,0,0,0,39,39H530V748.92a6.87,6.87,0,0,1,7.07-1.5A8.21,8.21,0,0,1,541.81,751.29Z"/><path d="M395.86,629.29h13.58a27.42,27.42,0,0,1-10.71-21.51c0-15.59,13.6-28.22,30.37-28.22s30.38,12.63,30.38,28.22a27.42,27.42,0,0,1-10.71,21.51h81.4V541.66a7,7,0,0,1,7.07-1.5,8.29,8.29,0,0,1,4.78,3.91c3.83,6.53,9.85,10.74,16.64,10.74,11.58,0,21-12.27,21-27.41s-9.38-27.42-21-27.42c-5.46,0-10.43,2.73-14.16,7.19a27.93,27.93,0,0,0-3.57,5.59l-.19.12a8.55,8.55,0,0,1-10.57,1.41v-88.8H446.68a7,7,0,0,1-1.05-6.54,8.31,8.31,0,0,1,3.91-4.77c6.53-3.83,10.74-9.86,10.74-16.64,0-11.58-12.27-21-27.41-21s-27.42,9.39-27.42,21c0,5.46,2.73,10.43,7.19,14.16a28.22,28.22,0,0,0,5.59,3.57l.12.19a8.52,8.52,0,0,1,1.67,10H395.86V421H413.7A27.44,27.44,0,0,1,403,399.49c0-15.59,13.6-28.23,30.38-28.23s30.37,12.64,30.37,28.23A27.4,27.4,0,0,1,453,421h77.1v-88.7a6.94,6.94,0,0,1,7.08-1.5A8.27,8.27,0,0,1,542,334.7c3.83,6.53,9.86,10.74,16.64,10.74,11.58,0,21-12.27,21-27.42s-9.38-27.41-21-27.41c-5.46,0-10.43,2.72-14.16,7.19a27.22,27.22,0,0,0-3.57,5.59l-.19,1.19s-4.47,3.82-10.57.31V222.16H416.63a39,39,0,0,0-39,39v42.22H377a2.29,2.29,0,0,0-2.29,2.29h0v20A2.31,2.31,0,0,0,377,328h.59v20.42h-.77a2.3,2.3,0,0,0-2.3,2.29v38.19a2.31,2.31,0,0,0,2.3,2.29h.77v15H377a2.29,2.29,0,0,0-2.29,2.29h0v12.3h-.5v25.92a2.29,2.29,0,0,0,2.27,2.29h.7V629.29Z"/><path d="M692.59,363.79a2.29,2.29,0,0,0-2.29-2.3h-1.38V359h-.75V259.23a37.48,37.48,0,0,0-37.48-37.5H538.17v76a27.74,27.74,0,0,1,22-11.05c15.71,0,28.45,13.61,28.45,30.39s-12.74,30.39-28.45,30.39a27.77,27.77,0,0,1-22-11v84.33h91a27.5,27.5,0,0,1-10.69-21.53c0-15.61,13.57-28.26,30.32-28.26a31.33,31.33,0,0,1,20.37,7.34,26.72,26.72,0,0,1,0,41.75v.67h19.75v-.07h3.67Z"/><path d="M662.38,624.8v-10h0a19,19,0,0,0,1.13-1.87,16.63,16.63,0,0,0,2.06-7.95,16.21,16.21,0,0,0-.94-5.44,17.63,17.63,0,0,0-2.25-4.38h0c-4.61-6.63-13.72-11.15-24.22-11.15-15.15,0-27.42,9.39-27.42,21,0,5.46,2.73,10.43,7.19,14.16a28.22,28.22,0,0,0,5.59,3.57l.12.19a8.53,8.53,0,0,1,1.67,10H537.09v82a27.38,27.38,0,0,1,21.77-11c15.59,0,28.22,13.6,28.22,30.37s-12.63,30.38-28.22,30.38a27.44,27.44,0,0,1-21.77-11v66.19H638.32a24.06,24.06,0,0,0,24.06-24V633h0v162.8a24.06,24.06,0,0,1-24.06,24.06H537.09v16h105a39,39,0,0,0,39-39h0V633h0v-4.3H662.38Z"/></g><path class="cls-4" d="M421.25,816.15a24.07,24.07,0,0,1-24.06-24.06V628.75H378.48V793.2a39,39,0,0,0,39,39H531v-16Z"/><path class="cls-5" d="M538,743.42a8.24,8.24,0,0,1,4.77,3.91c3.84,6.53,9.86,10.74,16.64,10.74,11.58,0,21-12.27,21-27.42s-9.41-27.36-21-27.36c-5.45,0-10.42,2.72-14.15,7.19a27.22,27.22,0,0,0-3.57,5.59l-.2,1.19s-4.47,3.82-10.56.31V628.75H444.25a7,7,0,0,1-1.05-6.54,8.34,8.34,0,0,1,3.91-4.77c6.53-3.84,10.75-9.86,10.75-16.64,0-11.58-12.28-21-27.42-21S403,589.19,403,600.8c0,5.45,2.73,10.43,7.2,14.16a28.1,28.1,0,0,0,5.58,3.56l.12.2a8.52,8.52,0,0,1,1.67,10h-20.4V792.09a24.07,24.07,0,0,0,24.06,24.06H531V744.92A6.88,6.88,0,0,1,538,743.42Z"/><rect class="cls-4" x="375.18" y="416.66" width="2.97" height="4.84"/><rect class="cls-4" x="380.63" y="416.66" width="16.23" height="4.84"/><rect class="cls-4" x="378.15" y="416.66" width="2.48" height="4.84"/><path class="cls-4" d="M377.47,444.87h.68V421.49h-3v21.09a2.29,2.29,0,0,0,2.27,2.29Z"/><path class="cls-4" d="M396.86,421.49H380.63v21.09a2.29,2.29,0,0,1-2.29,2.29h-.19V625.29h18.71Z"/><path class="cls-4" d="M378.15,444.87h.18a2.29,2.29,0,0,0,2.3-2.28h0V421.49h-2.48Z"/><path class="cls-6" d="M399.73,603.74c0-15.59,13.6-28.22,30.37-28.22s30.38,12.63,30.38,28.22a27.39,27.39,0,0,1-10.71,21.55h81.4V537.66a7,7,0,0,1,7.07-1.5,8.29,8.29,0,0,1,4.78,3.91c3.83,6.53,9.85,10.74,16.64,10.74,11.58,0,21-12.27,21-27.41s-9.38-27.42-21-27.42c-5.46,0-10.43,2.73-14.16,7.19a27.93,27.93,0,0,0-3.57,5.59l-.19.12a8.55,8.55,0,0,1-10.57,1.41v-88.8H447.68a7,7,0,0,1-1.05-6.54,8.31,8.31,0,0,1,3.91-4.77c6.53-3.83,10.74-9.86,10.74-16.64,0-11.58-12.27-21-27.41-21s-27.42,9.39-27.42,21c0,5.46,2.73,10.43,7.19,14.16a28.22,28.22,0,0,0,5.59,3.57l.12.19a8.52,8.52,0,0,1,1.67,10H396.86V625.29h13.58A27.42,27.42,0,0,1,399.73,603.74Z"/><path class="cls-4" d="M381.13,404a2.28,2.28,0,0,0-2.29-2.29h-.19v14.92h2.48Z"/><path class="cls-4" d="M378.56,299.36h-.5a2.29,2.29,0,0,0-2.29,2.29h0v20a2.31,2.31,0,0,0,2.29,2.29h.59V299.37Z"/><path class="cls-4" d="M377.88,344.34a2.3,2.3,0,0,0-2.3,2.29v38.19a2.31,2.31,0,0,0,2.3,2.29h.77V344.34Z"/><path class="cls-4" d="M378.65,402.07H378a2.29,2.29,0,0,0-2.29,2.29h0V417h3Z"/><path class="cls-4" d="M378.65,257.15v42.22a2.28,2.28,0,0,1,2.2,2.28v20a2.29,2.29,0,0,1-2.2,2.28v20.42H379a2.28,2.28,0,0,1,2.29,2.29h0v38.19a2.29,2.29,0,0,1-2.29,2.29h-.37v15h.18a2.29,2.29,0,0,1,2.3,2.29V417h16.23V258.29a24.06,24.06,0,0,1,24.05-24.06H454v4.18a19.81,19.81,0,0,0,19.81,19.81h57.37V245.14H504.77a3.91,3.91,0,0,1-3.87-3.85v-.84a3.88,3.88,0,0,1,3.87-3.87h26.36V218.16H417.63A39,39,0,0,0,378.65,257.15Z"/><path class="cls-4" d="M380.85,321.64v-20a2.28,2.28,0,0,0-2.2-2.28v24.55A2.29,2.29,0,0,0,380.85,321.64Z"/><path class="cls-4" d="M381.31,384.82V346.63a2.28,2.28,0,0,0-2.29-2.29h-.37v42.77H379a2.29,2.29,0,0,0,2.31-2.27Z"/><path class="cls-7" d="M404,395.49c0-15.59,13.6-28.23,30.38-28.23s30.37,12.64,30.37,28.23A27.4,27.4,0,0,1,454,417h77.1v-88.7a6.94,6.94,0,0,1,7.08-1.5A8.27,8.27,0,0,1,543,330.7c3.83,6.53,9.86,10.74,16.64,10.74,11.58,0,21-12.27,21-27.42s-9.38-27.41-21-27.41c-5.46,0-10.43,2.72-14.16,7.19a27.22,27.22,0,0,0-3.57,5.59l-.19,1.19s-4.47,3.82-10.57.31v-42.7H473.76A19.81,19.81,0,0,1,454,238.38V234.2H421.41a24.06,24.06,0,0,0-24.05,24.07V417H414.7A27.42,27.42,0,0,1,404,395.49Z"/><path class="cls-8" d="M504.77,236.55a3.88,3.88,0,0,0-3.87,3.87v.87a3.91,3.91,0,0,0,3.87,3.88h26.36v-8.59Z"/><path class="cls-4" d="M683.17,357.37v59.36h6.75V355h-3.65C684.56,355,683.17,356.05,683.17,357.37Z"/><rect class="cls-4" x="539.17" y="217.73" width="8" height="18"/><rect class="cls-4" x="539.17" y="244.73" width="8" height="13"/><rect class="cls-8" x="539.17" y="235.73" width="8" height="9"/><path class="cls-4" d="M691.3,357.49h-1.88v59.17h4.17V359.79A2.29,2.29,0,0,0,691.3,357.49Z"/><path class="cls-4" d="M547.16,235.73c2.13.48,4,4.36,4,4.36v.84s-1.88,3.87-4,3.8h0v13h45.19a19.82,19.82,0,0,0,19.81-19.82v-4.18h34a24,24,0,0,1,24,24V374.29a26.72,26.72,0,0,1,0,41.75v.67h14V358a.3.3,0,0,1,.29-.3h4.71V255.23a37.48,37.48,0,0,0-37.48-37.5H546.17v18Zm15.14-.09a4.87,4.87,0,1,1-4.87,4.87h0A4.87,4.87,0,0,1,562.3,235.64Z"/><path class="cls-9" d="M561.12,282.67c15.71,0,28.45,13.61,28.45,30.39s-12.74,30.39-28.45,30.39a27.77,27.77,0,0,1-22-11.05v84.33h91a27.5,27.5,0,0,1-10.69-21.53c0-15.61,13.57-28.26,30.32-28.26a31.36,31.36,0,0,1,20.42,7.35V257.78a24,24,0,0,0-24-24h-34v4.18a19.82,19.82,0,0,1-19.81,19.82H539.17v36A27.71,27.71,0,0,1,561.12,282.67Z"/><path class="cls-8" d="M547.16,244.73a4,4,0,0,0,4-3.8v-.84a5,5,0,0,0-4-4.36h-1v9Z"/><circle class="cls-8" cx="562.3" cy="240.48" r="4.87"/><path class="cls-4" d="M663.38,620.8v-10a16.69,16.69,0,0,0,0-19.64Z"/><rect class="cls-4" x="663.38" y="624.66" width="18.71" height="4.3"/><path class="cls-10" d="M655.83,617.64a8.34,8.34,0,0,0-3.91,4.77A7,7,0,0,0,653,629h10.41v-4.3h-4a30.41,30.41,0,0,0,4-3.86v-10A23.67,23.67,0,0,1,655.83,617.64Z"/><path class="cls-10" d="M659.36,624.66h4V620.8A30.41,30.41,0,0,1,659.36,624.66Z"/><path class="cls-4" d="M666.57,601a17,17,0,0,0-3.19-9.82v19.63A17,17,0,0,0,666.57,601Z"/><path class="cls-4" d="M682.09,629V792.87a39,39,0,0,1-39,39h-105v-16H639.32a24.06,24.06,0,0,0,24.06-24.06V629Z"/><path class="cls-11" d="M651.92,622.41a8.34,8.34,0,0,1,3.91-4.77,23.75,23.75,0,0,0,7.55-6.83V591.18c-4.61-6.63-13.72-11.15-24.22-11.15-15.15,0-27.42,9.39-27.42,21,0,5.46,2.73,10.43,7.19,14.16a28.22,28.22,0,0,0,5.59,3.57l.12.19a8.53,8.53,0,0,1,1.67,10H538.09v82a27.38,27.38,0,0,1,21.77-11c15.59,0,28.22,13.6,28.22,30.37s-12.63,30.38-28.22,30.38a27.44,27.44,0,0,1-21.77-11v66.19H639.32a24.06,24.06,0,0,0,24.06-24V629H653A7,7,0,0,1,651.92,622.41Z"/><path class="cls-12" d="M842.18,374.09c5.58-2.51,9.71-6.74,11.12-12.16a15.32,15.32,0,0,0,.38-2,17.13,17.13,0,0,0,.64-1.91c1.41-5.44-.14-11.07-3.82-15.88l-7.31,28h0Z"/><path class="cls-13" d="M761.15,490.18c8.23,3.12,27.36,3.46,35.86,3.46h4.18l5.45-11.1-5.45-9.25s-5-1.38-11.64-2.58c-9.8-1.76-23.21-3.14-29.6.82C749.23,478.16,750.43,486.11,761.15,490.18Z"/><path class="cls-14" d="M797,493.64h4.18l5.45-11.1-5.44-9.25s-5-1.38-11.64-2.58C794.94,474.67,807.9,483.29,797,493.64Z"/><path class="cls-15" d="M887.27,357.41l-2.4-2.78s-12.39,19.6-13.69,27-3,15.9-3,15.9S865,407.15,863,411.4s-3.88,8.32-4.06,10.17.74,5.92-3.15,8.51-4.8,9.62-4.8,9.62-14.06,13.68-21.46,14-28.66,4.07-27.92,7.77-8.87,5.91-12.76,6.84,25,12,8.14,26.26c0,0,10.72,2.22,11.83,4.8s12.39-1.47,12.39-1.47,2.41-5.74,10.73-6.11,12.57-4.07,12.57-4.62,8.32-5.18,13-6.47,10.72-1.85,10.91-3.15,27.74-120.19,27.74-120.19Z"/><path class="cls-7" d="M887.27,357.41l-2.4-2.78s-12.39,19.6-13.69,27-3,15.9-3,15.9S865,407.15,863,411.4s-3.88,8.32-4.06,10.17.74,5.92-3.15,8.51-4.8,9.62-4.8,9.62-14.06,13.68-21.46,14-28.66,4.07-27.92,7.77-8.87,5.91-12.76,6.84,25,12,8.14,26.26c0,0,10.72,2.22,11.83,4.8s12.39-1.47,12.39-1.47,2.41-5.74,10.73-6.11,12.57-4.07,12.57-4.62,8.32-5.18,13-6.47,10.72-1.85,10.91-3.15,27.74-120.19,27.74-120.19Z"/><path d="M916.07,870.56c24.41,4.58,28.85-14.15,28.85-14.15s3.05-16.64,4.16-17.89a2,2,0,0,0,.19-1.58h0a21.54,21.54,0,0,0-3.52-7.84c-1.52-1.8-.28-9.29-.28-9.29l-28.29-7.21s-2.5,5.68-2.77,8.32-4.44,14.56-4,16.23-1.8,6.79-2.08,9.43-3.74,6.52-4,7.9a31.46,31.46,0,0,1-1.53,3.66,36.54,36.54,0,0,0-1.8,5.63C899.57,869.59,916.07,870.56,916.07,870.56Z"/><path class="cls-14" d="M916.07,870.56c24.41,4.58,28.85-14.15,28.85-14.15s3.05-16.64,4.16-17.89a2,2,0,0,0,.19-1.58l-5.88,16.84s-4.85,10.12-22.88,8.6c-10.26-.87-15.31-2.77-17.76-4.25a36.54,36.54,0,0,0-1.8,5.63C899.57,869.59,916.07,870.56,916.07,870.56Z"/><path class="cls-14" d="M935.07,844.21s-6.1.14-6.52-4.85Z"/><polygon class="cls-10" points="745.31 572.01 749.18 573 748.33 576.93 744.74 576.02 745.31 572.01"/><polygon class="cls-14" points="745.31 572.01 749.18 573 748.33 576.93 744.74 576.02 745.31 572.01"/><rect class="cls-4" x="859.17" y="389.81" width="4.84" height="4.17" transform="translate(269.29 1130.2) rotate(-75.72)"/><rect class="cls-4" x="845.71" y="381.55" width="4.84" height="13.83" transform="translate(262.47 1114.57) rotate(-75.72)"/><rect class="cls-4" x="854.77" y="388.34" width="4.84" height="4.89" transform="translate(267.05 1125.1) rotate(-75.72)"/><path class="cls-10" d="M842.23,383.81c-.32.15-.63.31-.94.44l.78.2-1.2,4.69-5.93-1.51a7,7,0,0,1,.61-6.59,8.24,8.24,0,0,1,5-3.66,27.08,27.08,0,0,0,3.71-1.38Z"/><path class="cls-4" d="M856.38,404.06l1.81.47a2.3,2.3,0,0,0,2.79-1.65h0l2-8.08-4-1Z"/><path class="cls-4" d="M855,363.9c-1.38,5.4-5.39,9.61-10.81,12.1l7.1-27.9C854.89,352.89,856.4,358.5,855,363.9Z"/><path class="cls-4" d="M853.86,403.42a2.3,2.3,0,0,1-1.65-2.78l2.06-8.09-13.4-3.41L800,549.68a26.65,26.65,0,0,1-8.71,34.22l-.95,3.74,18.13,4.65L856.38,404.1Z"/><path class="cls-4" d="M852.21,400.64a2.3,2.3,0,0,0,1.65,2.78l2.52.64,2.62-10.3-4.73-1.21Z"/><path class="cls-10" d="M835.54,381a8.35,8.35,0,0,1,5-3.66,26.48,26.48,0,0,0,3.7-1.38l7.11-27.9a31.68,31.68,0,0,0-17.69-11.28c-14.67-3.74-28.89,2.33-31.74,13.55-1.35,5.29.07,10.78,3.48,15.5a27.64,27.64,0,0,0,4.53,4.83l.07.22a8.54,8.54,0,0,1-.86,10.14l-89.66-22.83-20.23,79.48A27.4,27.4,0,0,1,723,432.37c15.11,3.85,24,20.15,19.86,36.4s-19.7,26.32-34.81,22.52a27.47,27.47,0,0,1-18.37-16.07l-20.77,81.56L748.33,577a27.4,27.4,0,0,1-5.08-23.48c3.85-15.1,20.14-24,36.4-19.86a31.22,31.22,0,0,1,20.35,16l40.87-160.54L835,387.63A7,7,0,0,1,835.54,381Z"/><path class="cls-10" d="M842.06,384.45l.17-.64c-.31.15-.62.31-.94.45Z"/><g class="cls-3"><path d="M860.19,389.07l-4.73-1.21-13.39-3.41h0l.17-.64h0l2-7.81a27.08,27.08,0,0,1-3.71,1.38,8.24,8.24,0,0,0-5,3.66,9.9,9.9,0,0,0-.74,1.58,9.85,9.85,0,0,1,.73-1.58,8.35,8.35,0,0,1,5-3.66,26.48,26.48,0,0,0,3.7-1.38l7.11-27.9a31.68,31.68,0,0,0-17.69-11.28c-14.67-3.74-28.89,2.33-31.74,13.55-1.35,5.29.07,10.78,3.48,15.5a27.64,27.64,0,0,0,4.53,4.83l.07.22a8.54,8.54,0,0,1-.86,10.14l-89.66-22.83-20.23,79.48A27.41,27.41,0,0,1,723,432.37c15.11,3.85,24,20.15,19.86,36.4s-19.7,26.32-34.81,22.52a27.47,27.47,0,0,1-18.37-16.07l-20.77,81.56L748.33,577a27.4,27.4,0,0,1-5.08-23.48c3.85-15.1,20.14-24,36.4-19.86a31.22,31.22,0,0,1,20.35,16,26.65,26.65,0,0,1-8.71,34.22l-.95,3.74,18.13,4.65L856.38,404.1l1.81.47a2.3,2.3,0,0,0,2.79-1.65h0l2-8.12,1.19-4.69Zm-18.44-5c-.15.07-.3.15-.45.21h0Zm-6.8,3.59h0l5.93,1.51h0Z"/><path d="M855,363.9c1.37-5.4-.14-11-3.71-15.8l-7.1,27.9C849.64,373.51,853.65,369.29,855,363.9Z"/></g><rect class="cls-4" x="860.15" y="385.94" width="4.84" height="4.17" transform="translate(273.77 1128.24) rotate(-75.72)"/><rect class="cls-4" x="846.69" y="377.68" width="4.84" height="13.83" transform="translate(266.96 1112.61) rotate(-75.72)"/><rect class="cls-4" x="855.76" y="384.45" width="4.84" height="4.89" transform="translate(271.56 1123.13) rotate(-75.72)"/><path class="cls-10" d="M843.22,379.93l-.94.45.77.19-1.19,4.72-5.93-1.51a7,7,0,0,1,.6-6.59,8.35,8.35,0,0,1,5-3.66,26.48,26.48,0,0,0,3.7-1.38Z"/><path class="cls-4" d="M857.36,400.19l1.82.46A2.31,2.31,0,0,0,862,399v0l2.06-8.08-4-1Z"/><path class="cls-4" d="M856,360c-1.37,5.39-5.38,9.6-10.81,12.09l7.11-27.9C855.88,349,857.39,354.62,856,360Z"/><path class="cls-4" d="M854.85,399.55a2.31,2.31,0,0,1-1.65-2.79h0l2-8.08-13.34-3.39L801,545.81A26.61,26.61,0,0,1,792.29,580l-.95,3.74,18.14,4.62,47.9-188.19Z"/><path class="cls-4" d="M853.2,396.76a2.29,2.29,0,0,0,1.65,2.78h0l2.51.64L860,389.88l-4.74-1.2Z"/><path class="cls-16" d="M836.53,377.16a8.35,8.35,0,0,1,5-3.66,26.48,26.48,0,0,0,3.7-1.38l7.1-27.9a31.71,31.71,0,0,0-17.68-11.28c-14.68-3.73-28.89,2.33-31.75,13.56-1.34,5.28.07,10.77,3.49,15.49a27.7,27.7,0,0,0,4.53,4.84l.07.21a8.54,8.54,0,0,1-.86,10.14l-89.67-22.82L700.2,433.83A27.38,27.38,0,0,1,724,428.5c15.1,3.84,24,20.14,19.86,36.4S724.15,491.21,709,487.37a27.48,27.48,0,0,1-18.34-16.08L669.9,552.85l79.41,20.22a27.43,27.43,0,0,1-5.07-23.48c3.84-15.11,20.14-24,36.4-19.86A31.17,31.17,0,0,1,801,545.81l40.86-160.52-5.93-1.51A7,7,0,0,1,836.53,377.16Z"/><path class="cls-10" d="M843.05,380.58l.16-.65c-.31.15-.62.31-.93.45Z"/><path d="M829,680.29c3,4.57,6.52,24.55,6.52,24.55s2.36,4.57,2.22,8.46,2.22,11,2.22,11L847.73,753s-.84,7.63,2.08,13,2.63,3.74,1.25,13.17,1.66,18.17,6.65,21-2.22,9.29-2.22,9.29,31.9,8.6,38.56,3.33-3.47-31.35-3.47-31.35,1.67-21.91.56-25.1S885.31,726,885.31,726s-2.91-12.35-1.8-14.43-.69-8-.69-8-4.72-6.66-4.3-8.74-1.39-5.82-1.39-5.82,14.12-21.7,12.87-25.77.55-10.54.55-10.54l3.94-6.74c2.63-4.5,5.81-9.89,6.88-11.57,1.36-2.14,4.64-11.24,6.47-16.49l1.3-3.76s2.22,40.78,4.16,44.94,4.85,37,4.85,37a22.79,22.79,0,0,1,1.39,9.15c-.28,5.13,4.44,27.46,4.44,27.46s2.08,15.81.69,20-.28,34.82-.28,34.82-7.63,6-9.57,10.54.28,17,.28,17,22.19,11.1,32,8.19,5.82-19.7,5.82-19.7,6.66-11.09,6.66-15.39S962,770.7,962,770.7c8.46-15.53,5.13-53.25,6.52-56.3s-2.92-14.43-6.38-19.56-2.08-19,0-23S960,653.93,960,653.93s4-26.91,3.88-31.07,3.47-16.5,3.47-16.5S971,600,970.12,598s2.77-6.93,1.8-9.15.84-9,2.64-13c.92-2.06,2.07-7.74,3-12.77.85-4.79,1.48-9,1.48-9l-22.89-18.45-57.14-15-21.49-6.93-20.95,33a82.17,82.17,0,0,0-4.07,7.43c-1.65,3.43-3.12,7.25-2.86,9.63a13.29,13.29,0,0,1-1.94,8.6s-12.49,39.52-12.21,50.9-4.44,36.33-4.44,36.33S825.92,675.7,829,680.29Z"/><path class="cls-13" d="M913.46,358.79c.88-.36,61.21-25.28,52.9-30.23-4.93-2.94-11-15.4-15.16-25.15-2.9-6.81-4.87-12.3-4.87-12.3s-48.42-8.6-31.09,21.08a54.58,54.58,0,0,1,6.11,14.62C926.29,347,913.86,358.42,913.46,358.79Z"/><path class="cls-14" d="M915.24,312.19a54.58,54.58,0,0,1,6.11,14.62,33.83,33.83,0,0,0,28.59-20.09,33.11,33.11,0,0,0,1.26-3.31c-2.9-6.81-4.87-12.3-4.87-12.3S897.91,282.51,915.24,312.19Z"/><path class="cls-13" d="M885.14,291.94a33.84,33.84,0,1,0,1.32-9.37A33.83,33.83,0,0,0,885.14,291.94Z"/><path class="cls-14" d="M852.5,554.15c3.54,3.22,4.9,9.35,4.9,9.35s16.65,11.37,15.54,4.16,8.6-36.34,8.6-36.34L880.43,571s53.25-2.5,57.14-6.38,26.63-11.32,26.63-11.32,7,5.59,13.36,9.83c.85-4.79,1.48-9,1.48-9l-22.89-18.45-57.14-15-21.49-6.93-20.95,33C855.09,549.14,853.74,551.61,852.5,554.15Z"/><path class="cls-17" d="M850.75,551c4.44,2.77,6.1,10.26,6.1,10.26s16.64,11.37,15.53,4.16S881,529.1,881,529.1l-1.11,39.67s53.26-2.48,57.13-6.38S963.63,551,963.63,551s19.7,15.81,23.3,14.42-6.38-28.29-6.38-28.29L970.3,379.6s2.77-46.88-1.39-48.55a6.12,6.12,0,0,1-1.75-1.09c-2.74-2.46-3.56-7.46-3.8-11.66-.27-5-6.93-2.5-6.93-2.5l3.88,5-34.37,20.9-.3.18a35.72,35.72,0,0,0-4.13-1.87c-3-1.17-7.09-2.27-9.74-1.18a9.42,9.42,0,0,0-3.64,3.28,41.21,41.21,0,0,0-4.68,9.48L891,372.66s-6.38,28-6.38,29.13-1.94,26.63-4.16,29.4S876,447.83,876.85,452s-1.39,19.7-1.39,19.7c-9.15,7.49-13.86,33-13.86,33s-14.46,28.6-15.6,31.9S846.31,548.29,850.75,551Z"/><path class="cls-14" d="M925.94,342.8c3.37,5,13.11,12,13.11,12l28.11-23.75c-2.74-2.46-3.56-7.46-3.8-11.67-.27-5-6.93-2.49-6.93-2.49l.81,1a4.47,4.47,0,0,1-.79,6.28c-.14.1-.27.2-.42.29Z"/><path class="cls-17" d="M925.94,341.69c3.37,5,13.11,12,13.11,12l28.11-23.75c-2.74-2.46-3.56-7.46-3.8-11.66-.27-5-6.93-2.5-6.93-2.5l.81,1a4.47,4.47,0,0,1-1.21,6.56Z"/><path class="cls-14" d="M912.94,345.43c3.63,4.34,8.78,9.27,8.54,6.8s3.07-7.92,5.18-10.36a15.29,15.29,0,0,0-10.08.28A9.35,9.35,0,0,0,912.94,345.43Z"/><path class="cls-17" d="M912.39,343.76c3.63,4.35,8.77,9.27,8.53,6.81s2.73-6.47,4.84-8.91c-3-1.17-7.08-2.27-9.74-1.17A9.22,9.22,0,0,0,912.39,343.76Z"/><circle class="cls-7" cx="921.48" cy="364.62" r="2.22"/><circle class="cls-7" cx="904.65" cy="424.53" r="2.22"/><circle class="cls-7" cx="885.61" cy="485.19" r="2.22"/><circle class="cls-7" cx="885.05" cy="551.2" r="2.22"/><circle class="cls-7" cx="911.68" cy="392.91" r="2.22"/><circle class="cls-7" cx="896.7" cy="454.49" r="2.22"/><circle class="cls-7" cx="882.09" cy="514.96" r="2.22"/><circle class="cls-7" cx="885.42" cy="558.6" r="2.22"/><path class="cls-14" d="M967.16,331.29s-.37-3.33,4.43,2.41,13.87,10.72,13.87,10.72,20.53,14.43,21.64,21.08,7.76,35.51,4.25,45.12S981,466.29,981,466.29s7,8.33,5.37,18.13-3.7,23.3-2.78,26.26-1.11,10.35,2,12.94,6.47,7-3.33,12.94c0,0-1.85,5-.19,6.11s-24.59,12.57-35,6.47-29-54.92-29.4-65.83,5.73-47,9.06-55.48,13.32-41.61,17.57-49S967.16,331.29,967.16,331.29Z"/><path class="cls-7" d="M968.26,331.29s-.37-3.33,4.44,2.41,13.87,10.72,13.87,10.72,20.53,14.43,21.64,21.08,7.76,35.51,4.25,45.12-30.33,55.67-30.33,55.67,7,8.33,5.37,18.13-3.7,23.3-2.78,26.26-1.11,10.35,2,12.94,6.47,7-3.33,12.94c0,0-1.85,5-.19,6.11s-24.59,12.57-35,6.47-29-54.92-29.4-65.83,5.73-47,9.06-55.48,13.32-41.61,17.57-49S968.26,331.29,968.26,331.29Z"/><path class="cls-14" d="M975.66,362.77s-15.9,17.57-15.35,29.22C960.31,392,960.13,373.12,975.66,362.77Z"/><path class="cls-14" d="M953.66,391.62c0,.55-10.73,40.49-10.17,45.49s-3.15,19.78-3.15,19.78l-5-1.29s3.88-20.53,4.62-28.11S953.66,391.62,953.66,391.62Z"/><path class="cls-14" d="M949.4,505.53c.37.55,25.34,28.84,18.31,30.88S949.4,505.53,949.4,505.53Z"/><path class="cls-14" d="M969.93,498.29c.55.37,10,20.34,11.09,15s-8.13,14.61-9.61-.18Z"/><path class="cls-14" d="M922,337.62s-10.31-6.29-23.26,9.8c0,0-9.43,5.36-12.2,6.66s-5.92,35.69-5.92,35.69-6.1,14.79-4.44,23.3-4.8,37.72-4.8,37.72-10.74,52.5-10.38,54,10.91-16.46,10.73-25.34,8.87-36.61,10.17-38.28S892.07,392,892.07,392s7.21-20.16,11.83-26.82,10.36-19.23,12.76-21.45a24.11,24.11,0,0,1,5.73-3.7Z"/><path class="cls-7" d="M922.13,337.62s-11.56-6.29-24.5,9.8c0,0-9.44,5.36-12.21,6.66s-5.92,35.69-5.92,35.69-6.1,14.79-4.44,23.3-4.8,37.72-4.8,37.72-10.73,52.52-10.36,54,10.91-16.46,10.73-25.34,8.87-36.61,10.17-38.28S891,392,891,392s7.21-20.16,11.83-26.82,10.36-19.23,12.76-21.45,6.84-3.7,6.84-3.7Z"/><path class="cls-13" d="M871.37,453.19s-22-14.42-32.64-7.3-28,17.2-10.91,24.5,40.77,5.9,40.77,5.9Z"/><path class="cls-14" d="M886.67,592.35c3.28,7,6,42.38,7.82,53.59,2.63-4.5,5.81-9.89,6.88-11.57,1.36-2.14,4.64-11.24,6.47-16.49-2.09-5.08-7.86-19.64-7.86-25,0-6.52-10.54-14.7-10.54-14.7S882.79,584,886.67,592.35Z"/><path class="cls-14" d="M957.4,700.94s-24.41-10.4-31.62-3S957.4,700.94,957.4,700.94Z"/><path class="cls-14" d="M943.67,705.1S968.36,719,959.9,721.29,943.67,705.1,943.67,705.1Z"/><path class="cls-14" d="M869.89,693s10.54.69,6.52,2.77S869.89,693,869.89,693Z"/><path class="cls-14" d="M856.71,696.23c.14.69,30.65,10.54,24.69,15S856.71,696.23,856.71,696.23Z"/><path class="cls-14" d="M953.79,781.11c-4.57-.7-30.09-12.49-20.11-4S953.79,781.11,953.79,781.11Z"/><path class="cls-14" d="M941.17,790.4s-2.22,8.6-10.68,7.49S941.17,790.4,941.17,790.4Z"/><path class="cls-14" d="M948.25,807.87c-1.53-.41-19.7-8.73-20.11-4.85s17.33,10.68,18.72,8.6A7.4,7.4,0,0,0,948.25,807.87Z"/><path class="cls-14" d="M889.44,797.89c-2.22-.14-23-6.8-27.18-.84Z"/><path class="cls-14" d="M870.58,801.77s-3.61-3.19-7.21-1.53S870.58,801.77,870.58,801.77Z"/><path class="cls-14" d="M916.63,836.17a6.21,6.21,0,0,1-4.72,4.85Z"/><path d="M810.8,849.2c1.39,5.69,20.81,6.24,30.1,4.72s28.57-7.08,28.57-7.08,20.25-1.94,26.21-4.43,1.25-8.88,1.25-8.88v-.6c.14-2.32.56-10.73-.87-13-1.66-2.64-.69-11.24-.69-11.24s-28.71,5.55-29.27,2.92-5-6.38-7.07-7.21-3.61,6.93-3.61,6.93-13,11.1-13.87,15.12-10,6.09-10,6.09-13.87,3.89-17.48,5.83a6.7,6.7,0,0,0-3.82,5.39A15.16,15.16,0,0,0,810.8,849.2Z"/><path class="cls-14" d="M810.8,849.2c1.39,5.69,20.81,6.24,30.1,4.72s28.57-7.08,28.57-7.08,20.25-1.94,26.21-4.43,1.25-8.88,1.25-8.88v-.6l-29,6.43s-14.29,6.1-23.44,6.1c-8,0-25.9,3.27-34.2-1.69A15.11,15.11,0,0,0,810.8,849.2Z"/><path class="cls-14" d="M850.05,827.29s1.39,9.15,6.94,12.2Z"/><path class="cls-14" d="M886.46,282.57a10.85,10.85,0,0,0,1.65.69c2.6.7,5.14-1.06,7.45-2.46s5.5-2.44,7.5-.62c2.61,2.37.72,7.43,3.41,9.72,1.7,1.45,4.4,1,6.29,2.14s2.46,3.8,2.94,6,1.44,4.82,3.64,5.48,4.25-.79,6.42-.71c.45,0,1,.07,1.28-.25a1.33,1.33,0,0,0,.21-1,21.38,21.38,0,0,1,.71-8c.89-2.56,3-4.87,5.64-5.28,3.89-.6,7.16,2.81,9.45,6a96.34,96.34,0,0,1,6.56,10.56,4.8,4.8,0,0,1,.33.73,33.84,33.84,0,1,0-63.48-23Z"/><path class="cls-18" d="M943.05,293.77c-2.29-3.22-5.56-6.62-9.46-6-2.67.41-4.73,2.72-5.63,5.27a21.17,21.17,0,0,0-.7,8,1.38,1.38,0,0,1-.22,1c-.31.33-.83.28-1.28.26-2.17-.08-4.33,1.33-6.42.71s-3.16-3.23-3.64-5.48-1-4.82-2.94-6-4.59-.69-6.29-2.15c-2.69-2.28-.79-7.35-3.41-9.72-2-1.81-5.19-.77-7.5.63s-4.85,3.15-7.46,2.45c-.88-.24-1.67-.74-2.53-1.07-4.11-1.57-9.44,1.09-12.82-1.73a10,10,0,0,1-2.56-4.43,28.94,28.94,0,0,1-1.87-7.07,9.5,9.5,0,0,1,1.88-6.89c2.2-2.59,5.92-3.24,8.73-5.15,2.39-1.64,4-4.13,5.58-6.58s3.11-5,5.42-6.73,5.55-2.59,8.13-1.28a9.5,9.5,0,0,0,2.67,1.27,5.55,5.55,0,0,0,2.95-.81c9.62-4.53,20.82-3.73,31.37-2.38,4.22.54,8.5,1.17,12.35,3s7.25,5,8.33,9.12c.86,3.26.2,6.81,1.24,10,.7,2.18,2.14,4,3,6.19,2.25,5.85-.44,12.27-1.58,18.43-1.24,6.73-.62,14-3.48,20.38-.56,1.25-1.19,3.44-2.6,2.62-1-.61-2.06-4.16-2.66-5.27A94,94,0,0,0,943.05,293.77Z"/><path class="cls-14" d="M1004,402.16l5,14.24s-11.84,44-17.39,53.25-13.68,21.08-13.68,21.08-13.68,6.85-29.59,3.7S886,483,886,483s-3.89.74-5.92-2.22-12.6-4.46-12.6-4.46-12.2-17.75,2.78-25.15c0,0,1.85,4.07,9.8,1.3s10.35,2.21,10.35,2.21,13,2.59,20.16,1.67,25.15-1.3,27-2.78a2.37,2.37,0,0,1,3.33.19s4.43-1.66,5.91-3.33,3.52,1.85,3.52,1.85,2.59-1.48,1.85-3.33,2.4-8.87,2.4-8.87,1.48-4.63.56-8.33,4.62-17,4.62-17a23,23,0,0,0-.74-6.66c-.93-3.32,7-10,7-10s7.76-37.73,24.22-25.34S1004,402.16,1004,402.16Z"/><path class="cls-7" d="M1005.06,402.16l5,14.24s-11.84,44-17.39,53.25S979,490.73,979,490.73s-13.68,6.85-29.59,3.7S887.09,483,887.09,483s-3.88.74-5.91-2.22-12.59-4.46-12.59-4.46-12.2-17.75,2.78-25.15c0,0,1.85,4.07,9.8,1.3s10.35,2.21,10.35,2.21,13,2.59,20.16,1.67,25.15-1.3,27-2.78a2.37,2.37,0,0,1,3.33.19s4.43-1.66,5.91-3.33,3.52,1.85,3.52,1.85,2.59-1.48,1.85-3.33,2.4-8.87,2.4-8.87,1.48-4.63.55-8.33,4.63-17,4.63-17a23,23,0,0,0-.74-6.66c-.93-3.32,7-10,7-10s7.76-37.73,24.22-25.34S1005.06,402.16,1005.06,402.16Z"/><path class="cls-14" d="M884.87,461.7c.18,1.3,4.25,6.47,2.77,7.4s-3.88.37-1.66,3.33,2,7.39.55,6.84-3.88-7.21-3.88-9.8S884.87,461.7,884.87,461.7Z"/><path class="cls-14" d="M939.79,458.74s1.11,12.95,10.21,16.65S939.79,458.74,939.79,458.74Z"/><path class="cls-14" d="M958.65,454.29c.55.19,12.94,6.85,7.4,10.73S958.65,454.29,958.65,454.29Z"/><path class="cls-14" d="M959.39,445.06s18.12,3.7,12,6.84S959.39,445.06,959.39,445.06Z"/><g class="cls-3"><path d="M928,289.87c.9-2.55,3-4.86,5.63-5.27,3.9-.6,7.17,2.81,9.46,6a96.34,96.34,0,0,1,6.56,10.56c.6,1.11,1.62,4.65,2.66,5.26,1.41.83,2-1.36,2.6-2.61,2.86-6.36,2.24-13.65,3.48-20.38.73-3.93,2.08-8,2.38-11.9.43,4.84-1.47,9.93-2.38,14.85-1.24,6.73-.62,14-3.48,20.39-.56,1.25-1.19,3.44-2.6,2.61-1-.61-2.06-4.15-2.66-5.26a96.34,96.34,0,0,0-6.56-10.56c-2.29-3.21-5.56-6.62-9.46-6-2.67.41-4.73,2.72-5.63,5.27a15,15,0,0,0-.74,4.16A19.67,19.67,0,0,1,928,289.87Z"/><path d="M870.19,272.29a10,10,0,0,0,2.56,4.44c3.38,2.82,8.71.16,12.82,1.73.86.32,1.65.83,2.53,1.07,2.61.69,5.16-1.06,7.46-2.46s5.51-2.43,7.5-.62c2.62,2.37.72,7.43,3.41,9.72,1.7,1.45,4.4,1,6.29,2.15s2.46,3.79,2.94,6,1.43,4.82,3.64,5.48,4.25-.78,6.42-.7c.45,0,1,.07,1.28-.26a.85.85,0,0,0,.15-.28c0,.75,0,1.49.07,2.23a1.38,1.38,0,0,1-.22,1c-.31.32-.83.27-1.28.25-2.17-.07-4.33,1.33-6.42.71s-3.16-3.22-3.64-5.48-1-4.82-2.94-6-4.59-.7-6.29-2.15c-2.69-2.29-.79-7.36-3.41-9.72-2-1.82-5.19-.78-7.5.62s-4.85,3.15-7.46,2.46c-.88-.24-1.67-.75-2.53-1.07-4.11-1.57-9.44,1.09-12.82-1.73a10.09,10.09,0,0,1-2.56-4.44,28.87,28.87,0,0,1-1.87-7.06,11.42,11.42,0,0,1,.06-2.48A30.23,30.23,0,0,0,870.19,272.29Z"/></g></g></g></svg>