<svg xmlns="http://www.w3.org/2000/svg" xmlns:xlink="http://www.w3.org/1999/xlink" viewBox="0 0 1200 1028.57"><defs><style>.cls-1{fill:none;}.cls-2{fill:#f2f2f2;}.cls-3{fill:url(#linear-gradient);}.cls-4{fill:#3f3d56;}.cls-5{fill:#7e2bff;}.cls-6{fill:#ff2ebc;}.cls-7{fill:#d0cde1;}.cls-8{fill:#fff;}</style><linearGradient id="linear-gradient" x1="370.15" y1="677.49" x2="749.97" y2="677.49" gradientUnits="userSpaceOnUse"><stop offset="0" stop-color="#24b7f4"/><stop offset="1" stop-color="#28e2a6"/></linearGradient></defs><g id="Layer_2" data-name="Layer 2"><g id="Layer_1-2" data-name="Layer 1"><rect class="cls-1" width="1200" height="1028.57"/><path class="cls-2" d="M364.67,137c31.52-28.09,81-33.81,126-31.57,141.44,7,269.11,75.31,379.55,152.54,40,28,79.34,58.09,105.29,96.6,52.83,78.38,37.16,187-36.3,251.53-25,22-55.29,38.81-86.4,53.74-55.3,26.55-115,47.86-177.74,53.92-44.76,4.33-90.08.81-134.58-5.22-124.32-16.86-246.35-54.15-348.61-117.94-44.86-28-87.15-62.76-105.64-108s-6.65-102.62,39.15-129.41c19-11.08,41.6-16.08,63.78-20.78,32.64-6.92,65.81-13.74,95.27-27.8,30.44-14.54,66.44-42.63,60.44-74.77C338.38,195.29,333.19,165,364.67,137Z"/><rect class="cls-3" x="370.15" y="548.11" width="379.81" height="258.76"/><path class="cls-4" d="M771.15,517.84H397.39a4.56,4.56,0,0,0-4.54,4.54V775.09a4.54,4.54,0,0,0,4.54,4.54H771.15a4.54,4.54,0,0,0,4.54-4.54h0V522.38A4.55,4.55,0,0,0,771.15,517.84Zm1.51,257.25a1.5,1.5,0,0,1-1.5,1.51H397.39a1.51,1.51,0,0,1-1.51-1.5h0V522.38a1.52,1.52,0,0,1,1.51-1.51H771.15a1.52,1.52,0,0,1,1.51,1.51Z"/><rect class="cls-4" x="412.52" y="735.4" width="170.99" height="19.67" rx="2.21"/><path class="cls-4" d="M739.37,679.76H684.9a4.54,4.54,0,0,0-4.54,4.54h0v42.36a4.55,4.55,0,0,0,4.54,4.55h54.47a4.54,4.54,0,0,0,4.54-4.54h0V684.3a4.54,4.54,0,0,0-4.54-4.54Zm1.51,46.9a1.51,1.51,0,0,1-1.51,1.52H684.9a1.52,1.52,0,0,1-1.51-1.52V684.3a1.51,1.51,0,0,1,1.5-1.51h54.48a1.5,1.5,0,0,1,1.51,1.5h0Z"/><rect class="cls-4" x="693.57" y="689.53" width="37.13" height="7.68" rx="2.21"/><rect class="cls-4" x="693.57" y="701.64" width="37.13" height="7.68" rx="2.21"/><rect class="cls-4" x="693.57" y="713.74" width="37.13" height="7.68" rx="2.21"/><rect class="cls-4" x="417.06" y="536" width="78.69" height="33.29" rx="2.21"/><path class="cls-5" d="M462.46,552.65c0,5.85-2.71,10.59-6,10.59s-6.06-4.74-6.06-10.59,6.06-10.6,6.06-10.6S462.46,546.8,462.46,552.65Z"/><polygon class="cls-4" points="1028.74 400.54 1026.53 400.54 1026.53 647.63 775.69 647.63 775.69 649.84 1028.74 649.84 1028.74 400.54"/><polygon class="cls-4" points="370.15 649.84 117.11 649.84 117.11 400.54 119.32 400.54 119.32 647.63 370.15 647.63 370.15 649.84"/><path class="cls-4" d="M1167.26,263.49h-1.42V261h1.06a.71.71,0,0,0,.71-.71V247.55a.71.71,0,0,0-.71-.71h-1.06v-7.23a15.42,15.42,0,0,0-15.42-15.43h-1.57v-1.77a.7.7,0,0,0-.71-.7h-12.75a.7.7,0,0,0-.71.7h0v1.77H904.38A15.43,15.43,0,0,0,889,239.61h0V567.78a15.43,15.43,0,0,0,15.42,15.43h246a15.42,15.42,0,0,0,15.42-15.42h0V277.65h1.42a.71.71,0,0,0,.71-.71V264.19a.7.7,0,0,0-.71-.7Z"/><rect class="cls-2" x="901.71" y="234.27" width="253.51" height="336.37" rx="2.1"/><rect class="cls-4" x="999.35" y="399.12" width="43.49" height="12.89" rx="2.21"/><rect class="cls-4" x="946.78" y="298.78" width="148.64" height="5.52" rx="2.21"/><rect class="cls-4" x="946.78" y="316.27" width="148.64" height="5.52" rx="2.21"/><rect class="cls-4" x="946.78" y="333.76" width="148.64" height="5.52" rx="2.21"/><rect class="cls-4" x="946.78" y="351.25" width="148.64" height="5.52" rx="2.21"/><rect class="cls-4" x="946.78" y="368.74" width="148.64" height="5.52" rx="2.21"/><circle class="cls-6" cx="1015.84" cy="511.19" r="46.17"/><path class="cls-4" d="M1029.44,546.8a57.88,57.88,0,1,1,57.89-57.88h0A58,58,0,0,1,1029.44,546.8Zm0-113.66a55.78,55.78,0,1,0,55.78,55.78h0A55.85,55.85,0,0,0,1029.44,433.14Z"/><path class="cls-4" d="M203.85,318.85H202V267a30,30,0,0,0-30-30H62.05a30,30,0,0,0-30,30h0V551.53a30,30,0,0,0,30,30H171.94a30,30,0,0,0,30-30h0V355.77h1.89Z"/><path class="cls-2" d="M195.57,268.75V552.88a22.42,22.42,0,0,1-22.42,22.42H62.73a22.41,22.41,0,0,1-22.41-22.42V268.75a22.41,22.41,0,0,1,22.41-22.42h13.4A10.65,10.65,0,0,0,86,261h63a10.65,10.65,0,0,0,9.86-14.67h14.34A22.43,22.43,0,0,1,195.57,268.75Z"/><rect class="cls-4" x="103.15" y="413.73" width="29.58" height="8.77" rx="2.21"/><rect class="cls-4" x="67.39" y="345.48" width="101.1" height="3.76" rx="1.88"/><rect class="cls-4" x="67.39" y="357.38" width="101.1" height="3.76" rx="1.88"/><path class="cls-4" d="M69.27,369.27h97.34a1.88,1.88,0,0,1,1.88,1.88h0a1.88,1.88,0,0,1-1.88,1.88H69.27a1.88,1.88,0,0,1-1.88-1.88h0A1.88,1.88,0,0,1,69.27,369.27Z"/><path class="cls-4" d="M69.27,381.17h97.34a1.88,1.88,0,0,1,1.88,1.88h0a1.88,1.88,0,0,1-1.88,1.87H69.27a1.88,1.88,0,0,1-1.88-1.87h0A1.88,1.88,0,0,1,69.27,381.17Z"/><path class="cls-4" d="M69.27,393.06h97.34a1.88,1.88,0,0,1,1.88,1.88h0a1.88,1.88,0,0,1-1.88,1.88H69.27a1.88,1.88,0,0,1-1.88-1.88h0A1.88,1.88,0,0,1,69.27,393.06Z"/><circle class="cls-6" cx="109.24" cy="504.98" r="31.84"/><path class="cls-4" d="M118.63,529.54a39.92,39.92,0,1,1,39.92-39.92h0A40,40,0,0,1,118.63,529.54Zm0-78.39a38.47,38.47,0,1,0,38.47,38.47A38.47,38.47,0,0,0,118.63,451.15Z"/><rect class="cls-7" x="195.03" y="636.29" width="30.94" height="30.94"/><path class="cls-4" d="M244.75,649.55H207.18V612h37.57Zm-35.94-1.63h34.31V613.61H208.81Z"/><rect class="cls-7" x="887.86" y="636.29" width="30.94" height="30.94"/><path class="cls-4" d="M937.59,649.55H900V612h37.57Zm-35.94-1.63H936V613.61h-34.3Z"/><rect class="cls-5" x="898.31" y="652.21" width="69.21" height="48.45"/><path class="cls-4" d="M974.44,696.85H908a2.77,2.77,0,0,1-2.77-2.77V648.4a2.77,2.77,0,0,1,2.77-2.77h66.44a2.78,2.78,0,0,1,2.77,2.77v45.68A2.78,2.78,0,0,1,974.44,696.85ZM908,648.4v45.68h66.44V648.4Z"/><path class="cls-4" d="M966.82,646.67h-2.76a22.84,22.84,0,1,0-45.68,0h-2.77a25.61,25.61,0,1,1,51.21,0Z"/><path class="cls-4" d="M948.14,665.7a6.92,6.92,0,1,0-10.59,5.87V679a3.67,3.67,0,0,0,3.67,3.67h0a3.66,3.66,0,0,0,3.66-3.67h0v-7.42A6.92,6.92,0,0,0,948.14,665.7Z"/><rect class="cls-5" x="210.5" y="652.21" width="69.21" height="48.45"/><path class="cls-4" d="M286.63,696.85H220.19a2.77,2.77,0,0,1-2.77-2.77V648.4a2.77,2.77,0,0,1,2.77-2.77h66.44a2.78,2.78,0,0,1,2.77,2.77v45.68A2.78,2.78,0,0,1,286.63,696.85ZM220.19,648.4v45.68h66.44V648.4Z"/><path class="cls-4" d="M279,646.67h-2.76a22.84,22.84,0,0,0-45.68,0H227.8a25.61,25.61,0,1,1,51.21,0Z"/><path class="cls-4" d="M260.33,665.7a6.93,6.93,0,1,0-10.59,5.87V679a3.67,3.67,0,0,0,3.67,3.67h0a3.66,3.66,0,0,0,3.66-3.67h0v-7.42A6.92,6.92,0,0,0,260.33,665.7Z"/><g id="W_V"><rect class="cls-1" x="501.85" y="582.61" width="132.48" height="132.48"/><path class="cls-4" d="M604.39,690.09V702a.13.13,0,0,1-.12.12h-2.65a.13.13,0,0,1-.12-.12V690.29a6.13,6.13,0,0,0-1.59-4.28c-1.47-1.56-3.29-1.63-5.28-1.63h-1.79c-2.35,0-2.61-.06-2.61,2.76V702a.13.13,0,0,1-.12.12h-2.65a.12.12,0,0,1-.12-.12V685.45c0-3.44.87-3.89,4.32-3.89h3.47c.45,0,.89,0,1.34,0a8.78,8.78,0,0,1,3.43.89A8.11,8.11,0,0,1,602,684a8.47,8.47,0,0,1,2.39,6.08m-46.12,8.27a10.22,10.22,0,0,1-6.36,3.85,9.92,9.92,0,0,1-7.4-1.58,10.66,10.66,0,0,1-4.6-6.73,10.12,10.12,0,0,1,1.67-7.73l0-.06a10.42,10.42,0,0,1,6.42-4.32,10.07,10.07,0,0,1,7.87,1.65l.05,0a10.38,10.38,0,0,1,3.38,3.87,10.24,10.24,0,0,1,1.08,5.28.39.39,0,0,1-.4.39L547.19,693h-4.63a5,5,0,0,0,.08.54,7.29,7.29,0,0,0,3.11,4.77,7.53,7.53,0,0,0,5.54,1.22,7.35,7.35,0,0,0,4.7-2.84.19.19,0,0,1,.12-.07.2.2,0,0,1,.13,0l2,1.5a.16.16,0,0,1,.07.11A.23.23,0,0,1,558.27,698.36Zm-11-8.15h0l10.11.08a.2.2,0,0,0,.13-.06.17.17,0,0,0,0-.14,5.88,5.88,0,0,0-.87-2.15,7.35,7.35,0,0,0-7.76-3.45,8,8,0,0,0-4.95,3.34,6.56,6.56,0,0,0-1.15,2.38Zm-12.83-5.63-1.46.86a.11.11,0,0,1-.16,0l-.47-.71a11.84,11.84,0,0,0-.76-1,11.65,11.65,0,0,0-.83-.89,8.85,8.85,0,0,0-1.85-1.37h0a10.26,10.26,0,0,0-1.1-.55,12.15,12.15,0,0,0-1.16-.39,9.73,9.73,0,0,0-1.22-.23,10.9,10.9,0,0,0-1.29-.08,10,10,0,0,0-1.93.18,9.29,9.29,0,0,0-1.77.52,9.07,9.07,0,0,0-1.62.88,10.86,10.86,0,0,0-2.76,2.76,8.87,8.87,0,0,0-.88,1.63,8.39,8.39,0,0,0-.53,1.77,10,10,0,0,0-.18,1.93,9.54,9.54,0,0,0,.7,3.71,9.75,9.75,0,0,0,.87,1.62,10.56,10.56,0,0,0,1.25,1.48,10.94,10.94,0,0,0,1.51,1.27,9,9,0,0,0,1.64.89,8.63,8.63,0,0,0,1.77.53,10,10,0,0,0,1.93.18,10.6,10.6,0,0,0,1.91-.17,8.69,8.69,0,0,0,1.74-.51,9.26,9.26,0,0,0,1.59-.83,9.91,9.91,0,0,0,1.44-1.18h0a10.26,10.26,0,0,0,1.24-1.42,9.15,9.15,0,0,0,.91-1.57,5,5,0,0,0,.23-.58.13.13,0,0,0,0-.12.12.12,0,0,0-.1-.05h-9.9a.12.12,0,0,1-.12-.12V690.4a.12.12,0,0,1,.12-.12h13.29a.2.2,0,0,1,.15.06.23.23,0,0,1,0,.15l0,.47a7.64,7.64,0,0,1-.11.9c0,.3-.08.47-.09.56-.08.39-.17.76-.28,1.13s-.24.72-.39,1.08a12,12,0,0,1-1.16,2.14,13.11,13.11,0,0,1-1.6,1.93,13.81,13.81,0,0,1-1.92,1.6,12.29,12.29,0,0,1-2.14,1.15,11.39,11.39,0,0,1-2.33.69,13.7,13.7,0,0,1-5,0,11.58,11.58,0,0,1-2.33-.69,12.66,12.66,0,0,1-2.14-1.15,13.69,13.69,0,0,1-1.92-1.6l-.44-.44h0a12.67,12.67,0,0,1-1.17-1.48,11.33,11.33,0,0,1-1.15-2.14,12.08,12.08,0,0,1-.7-2.33,13.59,13.59,0,0,1-.23-2.5,13.76,13.76,0,0,1,.23-2.5,12.51,12.51,0,0,1,.7-2.33,11.57,11.57,0,0,1,1.15-2.13,13.22,13.22,0,0,1,1.6-1.93h0a13.77,13.77,0,0,1,1.93-1.6,12.2,12.2,0,0,1,2.13-1.15,11.58,11.58,0,0,1,2.33-.69,12.85,12.85,0,0,1,2.5-.23,12.36,12.36,0,0,1,1.62.1,12.21,12.21,0,0,1,1.56.29,13.24,13.24,0,0,1,1.5.51l.87.39h0l.57.32a13,13,0,0,1,1.36.87,11,11,0,0,1,1.21,1l.2.18h0c.31.31.61.63.88,1a12.07,12.07,0,0,1,.91,1.3l.48.78a.1.1,0,0,1,0,.09.11.11,0,0,1-.06.07Zm47.62,13.78a10.22,10.22,0,0,1-6.35,3.85,9.94,9.94,0,0,1-7.41-1.58,10.66,10.66,0,0,1-4.6-6.73,10.12,10.12,0,0,1,1.67-7.73l0-.06a10.45,10.45,0,0,1,6.42-4.32,10.06,10.06,0,0,1,7.87,1.65l0,0a10.29,10.29,0,0,1,4.47,9.15.41.41,0,0,1-.4.39L571,693h-4.63c0,.18,0,.36.08.54a7.33,7.33,0,0,0,3.11,4.77,7.53,7.53,0,0,0,5.54,1.22,7.35,7.35,0,0,0,4.7-2.84.19.19,0,0,1,.12-.07.23.23,0,0,1,.14,0l2,1.5a.16.16,0,0,1,.07.11A.18.18,0,0,1,582.05,698.36Zm-10.91-8.15h0l10.11.08a.2.2,0,0,0,.13-.06.17.17,0,0,0,0-.14,5.88,5.88,0,0,0-.87-2.15,7.35,7.35,0,0,0-7.76-3.45,8,8,0,0,0-4.95,3.34,6.72,6.72,0,0,0-1.15,2.38Zm45.66.07c3.77.83,7.84,1.74,7.84,6.3a4.89,4.89,0,0,1-2,4.2,9,9,0,0,1-5.39,1.38h-8.72a.12.12,0,0,1-.12-.12v-2.52a.11.11,0,0,1,.12-.11h9.09a5.51,5.51,0,0,0,3.1-.7,2.14,2.14,0,0,0,.89-1.88c0-2.59-2.88-3.25-5.84-3.92-3.65-.84-7.4-1.7-7.4-5.89a5.23,5.23,0,0,1,1.57-3.84,5.58,5.58,0,0,1,4-1.46h9.13a.12.12,0,0,1,.12.12v2.52a.12.12,0,0,1-.12.12h-9a2.82,2.82,0,0,0-1.95.72,2.36,2.36,0,0,0-.71,1.78C611.4,689.08,614,689.66,616.8,690.28Z"/><rect class="cls-8" x="530.24" y="592.07" width="75.7" height="75.7"/><path class="cls-4" d="M583.23,620.81a11.17,11.17,0,0,1-.35,1.07c-1.24,3.36-4.12,6.73-6.3,9.29l-1.36,1.61-1.49,1.76a1.34,1.34,0,1,1-2.06-1.72l1.5-1.78,1.37-1.61c2.05-2.4,4.74-5.56,5.82-8.47.11-.3.2-.59.28-.88a12.13,12.13,0,0,0-1-8.94,12.65,12.65,0,0,0-6.84-6.06c-.32-.12-.63-.22-.94-.31a14.08,14.08,0,0,0-3.8-.55h0a13.84,13.84,0,0,0-3.8.54c-.31.09-.62.19-.94.31a12.67,12.67,0,0,0-6.85,6.06,12.18,12.18,0,0,0-1,8.94c.08.29.17.58.28.88,1.08,2.91,3.77,6.07,5.82,8.47l.68.79,19.18,22.7h0l0,.05a3.22,3.22,0,0,1,.65,1.95,3.55,3.55,0,0,1-.36,1.54,3.42,3.42,0,0,1-1,1.23,2.88,2.88,0,0,1-1.75.61h-22a2.86,2.86,0,0,1-1.75-.61,3.32,3.32,0,0,1-1-1.23,3.55,3.55,0,0,1-.36-1.54,3.23,3.23,0,0,1,.58-1.85l.11-.16,7.51-8.88a1.34,1.34,0,1,1,2,1.74l-7.49,8.86a.54.54,0,0,0-.07.29.85.85,0,0,0,.09.38.67.67,0,0,0,.2.26.21.21,0,0,0,.13,0h22a.24.24,0,0,0,.13,0,.67.67,0,0,0,.2-.26.85.85,0,0,0,.09-.38.54.54,0,0,0-.07-.29L560.27,632l-.67-.78c-2.18-2.57-5.06-5.94-6.3-9.3a11.17,11.17,0,0,1-.35-1.07,14.85,14.85,0,0,1,1.17-10.91,15.37,15.37,0,0,1,8.31-7.35c.36-.13.74-.26,1.13-.37a16.57,16.57,0,0,1,4.53-.64h0a16.34,16.34,0,0,1,4.52.64c.4.11.78.24,1.14.37a15.37,15.37,0,0,1,8.31,7.35A14.85,14.85,0,0,1,583.23,620.81Z"/><path class="cls-4" d="M575.67,616.93a1.13,1.13,0,1,1,0,2.25H560.28a1.13,1.13,0,1,1,0-2.25Z"/><path class="cls-4" d="M563.86,611.67a1.18,1.18,0,0,1,1.23-1.12h5.77a1.13,1.13,0,1,1,0,2.25h-5.77A1.18,1.18,0,0,1,563.86,611.67Z"/><path class="cls-4" d="M565.09,623.69h5.77a1.13,1.13,0,1,1,0,2.25h-5.77a1.13,1.13,0,1,1,0-2.25Z"/><path class="cls-4" d="M565.78,649.84h4.67a1.13,1.13,0,1,1,0,2.25h-4.67a1.13,1.13,0,1,1,0-2.25Z"/></g><ellipse class="cls-2" cx="570.46" cy="887.35" rx="230.53" ry="16.31"/><ellipse class="cls-2" cx="137.09" cy="865.2" rx="113.89" ry="12.45"/><ellipse class="cls-2" cx="1036.98" cy="865.2" rx="139" ry="12.45"/></g></g></svg>